<?xml version="1.0" encoding="utf-8"?>
<!-- Generator: Adobe Illustrator 18.0.0, SVG Export Plug-In . SVG Version: 6.00 Build 0)  -->
<!DOCTYPE svg PUBLIC "-//W3C//DTD SVG 1.1//EN" "http://www.w3.org/Graphics/SVG/1.1/DTD/svg11.dtd">
<svg version="1.1" id="Layer_1" xmlns="http://www.w3.org/2000/svg" xmlns:xlink="http://www.w3.org/1999/xlink" x="0px" y="0px"
	 viewBox="0 0 18 18" enable-background="new 0 0 18 18" xml:space="preserve">
<path fill="#FFFFFF" d="M11.2,9l3.4,3.4L18,9h-2.2c0-3.7-3-6.8-6.8-6.8C7.3,2.2,5.7,2.9,4.5,4l1.4,1.4C6.7,4.6,7.8,4.2,9,4.2
	c2.7,0,4.8,2.2,4.8,4.8L11.2,9L11.2,9z M2.3,9c0,3.7,3,6.7,6.8,6.7c1.7,0,3.2-0.6,4.4-1.6l-1.4-1.4c-0.8,0.7-1.9,1.1-3,1.1
	c-2.7,0-4.8-2.1-4.8-4.8h2.5L3.4,5.6L0,9H2.3z"/>
</svg>
