<?xml version="1.0" encoding="utf-8"?>
<!-- Generator: Adobe Illustrator 18.0.0, SVG Export Plug-In . SVG Version: 6.00 Build 0)  -->
<!DOCTYPE svg PUBLIC "-//W3C//DTD SVG 1.1//EN" "http://www.w3.org/Graphics/SVG/1.1/DTD/svg11.dtd">
<svg version="1.1" id="Layer_1" xmlns="http://www.w3.org/2000/svg" xmlns:xlink="http://www.w3.org/1999/xlink" x="0px" y="0px"
	 viewBox="0 0 100 30" enable-background="new 0 0 100 30" xml:space="preserve">
<g>
	<g>
		<g>
			<path fill="#00B0B9" d="M14.5,3.9c0,1.1-0.9,2-2,2s-2-0.9-2-2s0.9-2,2-2S14.5,2.8,14.5,3.9z M12.5,7.4c-1.1,0-2,0.9-2,2
				s0.9,2,2,2s2-0.9,2-2S13.6,7.4,12.5,7.4z M12.5,12.9c-1.2,0-2.1,0.9-2.1,2.1s0.9,2.1,2.1,2.1s2.1-0.9,2.1-2.1
				S13.7,12.9,12.5,12.9z M12.5,18.5c-1.1,0-2,0.9-2,2s0.9,2,2,2s2-0.9,2-2S13.6,18.5,12.5,18.5z M12.5,24.1c-1.1,0-2,0.9-2,2
				c0,1.1,0.9,2,2,2s2-0.9,2-2C14.5,25,13.6,24.1,12.5,24.1z M17.9,7.2c-1.3,0-2.3,1-2.3,2.3s1,2.3,2.3,2.3s2.3-1,2.3-2.3
				S19.2,7.2,17.9,7.2z M17.9,12.6c-1.3,0-2.4,1.1-2.4,2.4c0,1.3,1.1,2.4,2.4,2.4c1.3,0,2.4-1.1,2.4-2.4
				C20.3,13.7,19.2,12.6,17.9,12.6z M17.9,18.2c-1.3,0-2.3,1-2.3,2.3s1,2.3,2.3,2.3s2.3-1,2.3-2.3S19.2,18.2,17.9,18.2z M23.4,12.4
				c-1.5,0-2.6,1.2-2.6,2.6s1.2,2.6,2.6,2.6c1.5,0,2.6-1.2,2.6-2.6S24.9,12.4,23.4,12.4z M7.1,7.7c-1,0-1.8,0.8-1.8,1.8
				s0.8,1.8,1.8,1.8s1.8-0.8,1.8-1.8S8,7.7,7.1,7.7z M7.1,13.1c-1,0-1.9,0.8-1.9,1.9c0,1,0.8,1.9,1.9,1.9S8.9,16,8.9,15
				C8.9,14,8.1,13.1,7.1,13.1z M7.1,18.8c-1,0-1.8,0.8-1.8,1.8c0,1,0.8,1.8,1.8,1.8s1.8-0.8,1.8-1.8C8.8,19.6,8,18.8,7.1,18.8z
				 M1.6,13.4C0.7,13.4,0,14.1,0,15s0.7,1.6,1.6,1.6s1.6-0.7,1.6-1.6S2.5,13.4,1.6,13.4z"/>
		</g>
	</g>
	<g>
		<g>
			<path fill="#002A3A" d="M46.1,11.6c-0.2,0-0.3,0.2-0.3,0.3v13.8c0,0.2,0.2,0.3,0.3,0.3h1.7c0.2,0,0.3-0.2,0.3-0.3V11.9
				c0-0.2-0.2-0.3-0.3-0.3H46.1z"/>
			<g>
				<g>
					<path fill="#002A3A" d="M46.9,5.8c-0.9,0-1.6,0.7-1.6,1.6c0,0.9,0.7,1.6,1.6,1.6c0.9,0,1.6-0.7,1.6-1.6
						C48.5,6.5,47.8,5.8,46.9,5.8z"/>
				</g>
			</g>
			<path fill="#002A3A" d="M81.6,11.6c-0.2,0-0.3,0.2-0.3,0.3v13.8c0,0.2,0.2,0.3,0.3,0.3h1.7c0.2,0,0.3-0.2,0.3-0.3V11.9
				c0-0.2-0.2-0.3-0.3-0.3H81.6z"/>
			<g>
				<g>
					<path fill="#002A3A" d="M82.4,5.8c-0.9,0-1.6,0.7-1.6,1.6c0,0.9,0.7,1.6,1.6,1.6c0.9,0,1.6-0.7,1.6-1.6
						C84,6.5,83.3,5.8,82.4,5.8z"/>
				</g>
			</g>
			<path fill="#002A3A" d="M99.2,24.9c0.1-0.1,0.1-0.1,0.1-0.2v0c0,0,0-0.1,0-0.1c0,0,0-0.1-0.1-0.1c0,0-0.1-0.1-0.1-0.1
				c-0.1,0-0.1,0-0.2,0h-0.5v1.2h0.1V25h0.3h0l0.4,0.5h0.2L99,25C99.1,25,99.2,24.9,99.2,24.9z M98.6,24.9v-0.5h0.3
				c0.1,0,0.2,0,0.2,0.1c0.1,0,0.1,0.1,0.1,0.2v0c0,0.1,0,0.1-0.1,0.2c-0.1,0-0.1,0.1-0.2,0.1H98.6z"/>
			<path fill="#002A3A" d="M98.8,23.7c-0.6,0-1.2,0.5-1.2,1.2c0,0.6,0.5,1.2,1.2,1.2c0.6,0,1.2-0.5,1.2-1.2
				C100,24.3,99.5,23.7,98.8,23.7z M98.8,26c-0.6,0-1.1-0.5-1.1-1.1c0-0.6,0.5-1.1,1.1-1.1c0.6,0,1.1,0.5,1.1,1.1
				C99.9,25.5,99.4,26,98.8,26z"/>
			<path fill="#002A3A" d="M59.8,13.9c0.2,0,0.3-0.2,0.3-0.3v-1.7c0-0.2-0.2-0.3-0.3-0.3h-3.5V6.2c0-0.2-0.2-0.3-0.3-0.3h-1.7
				c-0.2,0-0.3,0.2-0.3,0.3v5.3h-1.8c-0.2,0-0.3,0.2-0.3,0.3v1.7c0,0.2,0.2,0.3,0.3,0.3h1.8V22c0,2.4,1.6,4.1,4.1,4.1h1.8
				c0.2,0,0.3-0.2,0.3-0.3v-1.7c0-0.2-0.2-0.3-0.3-0.3h-1.6c-1.1,0-2-0.8-2-2v-7.8H59.8z"/>
			<path fill="#002A3A" d="M95,13.9c0.2,0,0.3-0.2,0.3-0.3v-1.7c0-0.2-0.2-0.3-0.3-0.3h-3.5V6.2c0-0.2-0.2-0.3-0.3-0.3h-1.7
				c-0.2,0-0.3,0.2-0.3,0.3v5.3h-1.8c-0.2,0-0.3,0.2-0.3,0.3v1.7c0,0.2,0.2,0.3,0.3,0.3h1.8V22c0,2.4,1.6,4.1,4.1,4.1H95
				c0.2,0,0.3-0.2,0.3-0.3v-1.7c0-0.2-0.2-0.3-0.3-0.3h-1.6c-1.1,0-2-0.8-2-2v-7.8H95z"/>
			<path fill="#002A3A" d="M35.6,13.9v11.8c0,0.2,0.2,0.3,0.3,0.3h1.7c0.2,0,0.3-0.2,0.3-0.3V13.9h3.9c0.2,0,0.3-0.2,0.3-0.3v-1.7
				c0-0.2-0.2-0.3-0.3-0.3h-3.9V8.4c0-1.2,0.8-2.1,2-2.1h2c0.2,0,0.3-0.2,0.3-0.3V4.3c0-0.2-0.2-0.3-0.3-0.3H40
				c-2.5,0-4.4,2-4.4,4.5v3.2h-1.8c-0.2,0-0.3,0.2-0.3,0.3v1.7c0,0.2,0.2,0.3,0.3,0.3H35.6z"/>
		</g>
		<path fill="#002A3A" d="M76,13.3c-1.3-1.4-3.1-2.2-5.2-2.2c-1.8,0-3.7,0.8-4.8,2V4.3c0-0.2-0.2-0.3-0.3-0.3H64
			c-0.2,0-0.3,0.2-0.3,0.3v14.6c0,5.4,3.6,7.8,7.2,7.8c3.6,0,7.2-2.4,7.2-7.8C78,16.6,77.3,14.7,76,13.3z M70.8,24.3
			c-3.5,0-4.8-2.8-4.8-5.4c0-3.2,1.9-5.4,4.8-5.4c2.9,0,4.8,2.2,4.8,5.4C75.6,21.5,74.4,24.3,70.8,24.3z"/>
	</g>
</g>
</svg>
