<?xml version="1.0" encoding="utf-8"?>
<!-- Generator: Adobe Illustrator 18.0.0, SVG Export Plug-In . SVG Version: 6.00 Build 0)  -->
<!DOCTYPE svg PUBLIC "-//W3C//DTD SVG 1.1//EN" "http://www.w3.org/Graphics/SVG/1.1/DTD/svg11.dtd">
<svg version="1.1" id="Layer_1" xmlns="http://www.w3.org/2000/svg" xmlns:xlink="http://www.w3.org/1999/xlink" x="0px" y="0px"
	 viewBox="0 0 100 60" enable-background="new 0 0 100 60" xml:space="preserve">
<g>
	<g>
		<path fill="#575F70" d="M6,41.7c-0.4-0.2-0.8-0.2-1.2-0.2c-1.3,0-2.4,0.7-2.9,1.9l-1.5,3.6c-0.4,1-0.5,2.2-0.2,2.8
			c0.1,0.3,0.3,0.5,0.6,0.6c0.1,0.1,0.3,0.1,0.4,0.1c0.7,0,1.5-0.6,1.8-1.5c0.3-0.8,1.1-1.3,1.7-1c0.3,0.1,0.6,0.2,0.8,0.2
			c0.6,0,1.1-0.3,1.2-0.7C7,46.8,6.4,46,5.5,45.7c-0.4-0.2-0.7-0.4-0.8-0.7c0-0.1-0.1-0.2,0-0.4c0.1-0.3,0.9-0.4,1.7-0.1
			c0.3,0.1,0.7,0.2,1,0.2c0.6,0,1.1-0.2,1.2-0.7C8.8,43.2,7.4,42.3,6,41.7z"/>
		<path fill="#575F70" d="M19.7,45.8c-1.4-0.4-2.7-0.2-3.9,0.5c-1.2,0.7-2.1,1.8-2.5,3.2c-0.2,0.7-0.3,1.4-0.2,2.1
			c0.1,1.2,1.1,2.9,2,3.6c0.6,0.4,1.2,0.7,2,0.9c0.5,0.1,1,0.2,1.5,0.2c0.9,0,1.8-0.3,2.7-0.8c1.2-0.8,2-1.9,2.3-3.4
			c0.3-1.4,0.1-2.8-0.6-4C22.1,46.9,21.1,46.2,19.7,45.8z M20.4,49.5c0.3,0.6,0.3,1.3,0.2,2c-0.2,0.8-0.5,1.4-1.1,1.7
			c-0.5,0.4-1.1,0.5-1.8,0.3c-0.7-0.2-1.2-0.5-1.5-1.1c-0.3-0.6-0.3-1.3-0.1-2c0.2-0.8,0.6-1.3,1.1-1.7c0.4-0.2,0.7-0.4,1.1-0.4
			c0.2,0,0.4,0,0.6,0.1C19.7,48.5,20.1,48.9,20.4,49.5z"/>
		<path fill="#575F70" d="M34.8,48.7c-1.4-0.2-2.7,0.2-3.8,1c-1.1,0.9-1.8,2-2.1,3.5c-0.1,0.7-0.1,1.4,0,2.1
			c0.2,1.2,1.4,2.7,2.4,3.3c0.6,0.3,1.3,0.6,2,0.7c0.3,0,0.5,0,0.8,0c1.2,0,2.3-0.4,3.2-1.1c1.1-0.9,1.7-2.1,1.9-3.6
			c0.1-1.5-0.3-2.8-1.1-3.9C37.4,49.5,36.2,48.9,34.8,48.7z M36.5,54.3c-0.1,0.8-0.4,1.4-0.8,1.9c-0.5,0.4-1.1,0.6-1.8,0.5
			c-0.7-0.1-1.2-0.4-1.6-0.9c-0.4-0.5-0.5-1.2-0.4-2c0.1-0.8,0.4-1.4,0.9-1.8c0.4-0.3,0.8-0.5,1.4-0.5c0.1,0,0.2,0,0.3,0
			c0.7,0.1,1.2,0.4,1.5,0.9C36.4,52.8,36.5,53.5,36.5,54.3z"/>
		<path fill="#575F70" d="M53.8,51.3c-1.1-0.9-2.5-1.3-4.1-1.3c-0.5,0-1,0-1.5,0c-1,0-1.8,1.3-1.8,3.1l-0.1,3.9
			c0,1.1,0.3,2.1,0.8,2.7c0.3,0.3,0.6,0.5,1,0.5c0.5,0,1.1,0,1.6,0h0c1.8,0,3.2-0.5,4.3-1.4c1.1-1,1.6-2.2,1.5-3.7
			C55.5,53.4,54.9,52.2,53.8,51.3z M49.2,55c0-1.3,0.1-2.2,0.1-2.6c1,0,1.8,0.2,2.4,0.7c0.6,0.4,0.9,1.1,0.9,1.8
			c0,0.8-0.3,1.4-0.8,1.9c-0.6,0.5-1.4,0.7-2.5,0.7C49.3,57.2,49.2,56.3,49.2,55z M49.7,59.7L49.7,59.7L49.7,59.7L49.7,59.7z"/>
		<path fill="#575F70" d="M67.4,56.4c-0.9,0.1-1.6-0.2-1.6-0.5c0-0.4,0.5-0.8,1.1-0.9c0.6-0.1,1-0.3,1.3-0.7
			c0.2-0.2,0.2-0.5,0.2-0.7c-0.1-0.7-0.9-1.1-1.8-1c-0.6,0.1-1.2-0.1-1.3-0.5c0-0.3,0.5-0.7,1.4-0.8c0.7-0.1,1.3-0.4,1.6-0.8
			c0.2-0.2,0.2-0.5,0.2-0.7c-0.1-0.8-1.6-0.9-2.2-0.9c-0.3,0-0.7,0-1.1,0.1c-1.7,0.2-2.9,1.7-2.8,3.4l0.4,3.9C63,57.8,64.3,59,66,59
			c0.1,0,0.3,0,0.4,0c1.4-0.2,2.6-0.6,3-1.2c0.2-0.2,0.2-0.4,0.1-0.5C69.4,56.6,68.5,56.2,67.4,56.4z"/>
		<path fill="#575F70" d="M84.1,53.1c-0.3,0-0.6,0-0.9,0.1c-0.8,0.2-1.6,0-1.7-0.3c-0.1-0.4,0.4-0.8,1-1c0.5-0.1,1-0.5,1.2-0.9
			c0.1-0.3,0.2-0.5,0.1-0.8c-0.1-0.5-0.7-0.8-1.4-0.8c-0.2,0-0.4,0-0.6,0.1c-0.6,0.2-1.2,0-1.3-0.3c-0.1-0.3,0.4-0.7,1.3-1
			c0.7-0.2,1.2-0.6,1.5-1c0.1-0.2,0.2-0.5,0.1-0.7c-0.1-0.3-0.4-0.6-1.5-0.6c-0.5,0-1.2,0.1-1.8,0.3c-1.6,0.4-2.6,2-2.3,3.7l0.9,3.8
			c0.3,1.4,1.5,2.3,3,2.3c0.3,0,0.6,0,0.9-0.1c1.4-0.3,2.5-0.9,2.8-1.5c0.1-0.2,0.1-0.4,0.1-0.5C85.4,53.4,84.9,53.1,84.1,53.1z"/>
		<path fill="#575F70" d="M99.7,47c-0.3-0.7-0.7-1.2-1.4-1.5c-0.6-0.3-1.5-0.5-2.7-0.6c-0.8-0.1-1.1-0.1-1.2-0.2
			c-0.3-0.1-0.4-0.3-0.4-0.3c-0.1-0.3-0.1-0.5,0.5-0.8c0.4-0.1,0.8-0.2,1.3-0.2c0.6,0,1-0.2,1.2-0.5c0.1-0.2,0.2-0.4,0-0.8
			c-0.3-0.7-1.2-1.2-2-1c-0.5,0.1-1,0.2-1.3,0.4c-0.9,0.3-1.6,0.9-2,1.6c-0.4,0.7-0.5,1.5-0.2,2.3c0.3,0.8,0.8,1.3,1.5,1.6
			c0.5,0.2,1.3,0.4,2.3,0.5c0.8,0.1,1.3,0.2,1.5,0.3c0.2,0.1,0.3,0.2,0.4,0.4c0,0.1,0.1,0.3-0.1,0.6c-0.2,0.2-0.5,0.4-0.9,0.6
			c-0.5,0.2-1,0.3-1.6,0.2c-0.2,0-0.4,0-0.6-0.1l-0.1,0c-0.2,0-0.3,0.1-0.4,0.2c-0.2,0.3-0.1,0.7,0.1,1.2c0.3,0.7,1.1,1.2,1.9,1.2
			c0.1,0,0.2,0,0.3,0c0.5-0.1,1-0.2,1.4-0.4c1.2-0.4,2-1.1,2.5-1.9C100.1,48.8,100.1,47.9,99.7,47z"/>
	</g>
	<g>
		<path fill="#575F70" d="M75,26.1l-1.7-1.7c-0.3-0.3-0.9-0.5-1.4-0.5h-3.6c-0.6,0-0.9,0.3-0.9,0.8v3.6c0,0.5,0.2,1.1,0.5,1.4
			l1.7,1.8c0.2,0.2,0.4,0.2,0.5,0.2c0.2,0,0.5-0.2,0.5-0.6v-3.6c0-0.1,0-0.3,0.4-0.3h3.6c0.3,0,0.5-0.1,0.6-0.3
			C75.3,26.6,75.3,26.3,75,26.1z"/>
		<path fill="#575F70" d="M31.8,23.9h-3.5c-0.4,0-1.1,0.2-1.4,0.5l-1.7,1.8c-0.2,0.2-0.3,0.5-0.2,0.7c0,0.1,0.2,0.3,0.6,0.3h3.5
			c0.4,0,0.4,0.2,0.4,0.3v3.6c0,0.4,0.2,0.6,0.5,0.6c0.2,0,0.3-0.1,0.5-0.2l1.7-1.8c0.3-0.3,0.6-0.9,0.6-1.4v-3.6
			C32.8,24.2,32.4,23.9,31.8,23.9z"/>
		<path fill="#575F70" d="M61.2,30.9c-0.8-0.7-1.5-1.1-1.9-1.3c-0.4-0.2-0.7-0.2-1.1-0.2c-0.3,0-0.6,0.1-0.9,0.1
			c-0.3,0.1-0.5,0.1-0.7,0.1c-0.1,0-0.1,0-0.1,0L44.1,17.2L43.9,17l-2.5,2.5l12.2,12.3l0.3,0.3c0,0.1,0,0.5-0.1,0.8
			c-0.1,0.3-0.1,0.6-0.1,0.9c0,0.4,0,0.7,0.2,1.1c0.2,0.4,0.6,1.1,1.3,1.9c1.2,1.4,3,3.1,4.2,3.1c0.2,0,0.3,0,0.5-0.1
			c0,0,0.1,0,0.1-0.1l0.1-0.1c0.3-0.8-0.6-1.6-1.5-2.5c-0.7-0.6-1.3-1.3-1.5-1.8C57,35,57,34.7,57,34.6c0-0.1,0.1-0.1,0.2-0.2
			c0.3,0,1.3,1.1,1.9,1.8c0.2,0.2,0.4,0.4,0.6,0.7l0.2,0.2c0,0,0.1,0.1,0.1,0.1l0.1,0.1c0.5,0.5,0.9,0.8,1.2,0.8l0.1,0l0,0
			c0.3,0,0.5-0.1,0.7-0.2c0.2-0.2,0.2-0.6,0.2-0.8l0-0.1c0-0.2-0.2-0.5-0.5-0.9c-0.1-0.1-0.2-0.2-0.2-0.3l-0.5-0.5
			c-0.2-0.2-0.5-0.4-0.7-0.6c-0.6-0.6-1.7-1.6-1.7-1.9c0-0.1,0-0.3,0.4-0.3c0.1,0,0.3,0,0.4,0.1c0.5,0.2,1.2,0.9,1.8,1.5
			c0.8,0.8,1.5,1.6,2.2,1.6c0.1,0,0.2,0,0.3-0.1l0.1-0.1c0,0,0.1-0.1,0.1-0.1C64.9,34.2,61.5,31.2,61.2,30.9z M61,35.5L61,35.5
			L61,35.5L61,35.5z"/>
		<path fill="#575F70" d="M70.9,22.5c0.1-0.2,0-0.5-0.2-0.7L69,20.1c-0.3-0.3-0.9-0.6-1.4-0.6h-1.4c-0.3,0-0.8-0.2-1-0.5l-2-2.1
			l-2.4,2.4l2,2c0.2,0.2,0.4,0.7,0.4,1v1.4c0,0.5,0.2,1.1,0.6,1.4l1.7,1.8c0.2,0.2,0.3,0.2,0.5,0.2c0.2,0,0.5-0.2,0.5-0.6v-3.5
			c0-0.3,0.3-0.4,0.4-0.4h3.5C70.7,22.8,70.9,22.6,70.9,22.5z"/>
		<path fill="#575F70" d="M37.2,15.2l2.5-2.5l-0.5-0.5c-1-1-1.5-2.2-1.5-3.6c0-1.4,0.5-2.6,1.5-3.6c1-1,2.2-1.5,3.6-1.5
			c1.4,0,2.6,0.5,3.6,1.5l10.1,10.1l2.4-2.4l-10-10.1C47.2,0.9,45,0,42.8,0c-2.3,0-4.4,0.9-6,2.5c-1.6,1.6-2.5,3.8-2.5,6.1
			c0,2.3,0.9,4.5,2.5,6.1L37.2,15.2z"/>
		<path fill="#575F70" d="M37.2,23.9v-1.4c0-0.3,0.2-0.8,0.5-1L49.3,9.8l-2.5-2.5L35.2,19.1c-0.3,0.3-0.7,0.5-1,0.5h-1.4
			c-0.4,0-1,0.2-1.4,0.5l-1.7,1.7c-0.3,0.3-0.2,0.6-0.2,0.7c0,0.1,0.2,0.3,0.6,0.3h3.7c0.2,0,0.6,0.1,0.6,0.4v3.5
			c0,0.6,0.3,0.6,0.4,0.6c0.1,0,0.3-0.1,0.5-0.2l1.6-1.8C37.1,25,37.2,24.3,37.2,23.9z"/>
		<path fill="#575F70" d="M54,5c1-1,2.2-1.5,3.6-1.5c1.3,0,2.6,0.5,3.6,1.5c0.9,1,1.5,2.2,1.5,3.6c0,1.4-0.5,2.6-1.5,3.6l-10,10.1
			l2.5,2.5l0.2-0.2c5.2-5.2,9.8-9.9,9.8-9.9c1.6-1.6,2.5-3.8,2.5-6.1s-0.9-4.5-2.5-6.1C62,0.9,59.8,0,57.5,0c-2.2,0-4.4,0.9-6.1,2.6
			L51.1,3l2.5,2.5L54,5z"/>
		<path fill="#575F70" d="M45.9,27.6c-0.1,0.1-0.4,0.2-0.6,0.2c-0.1,0-0.2,0-0.2-0.1c-0.1-0.1-0.2-0.2-0.3-0.3
			c-0.2-0.2-0.4-0.3-0.6-0.5c-0.4-0.3-1.1,0.1-1.5,0.4l-0.7,0.7c-3.3,3.3-7.8,7.9-5.1,11.1c0.2,0.2,0.5,0.3,0.8,0.3
			c0.2,0,0.5-0.1,0.6-0.2c1.5-1.2,5.1-4.6,10.7-10.1l0.2-0.2l-2.4-2.4L45.9,27.6z"/>
	</g>
</g>
</svg>
