<?xml version="1.0" encoding="utf-8"?>
<!-- Generator: Adobe Illustrator 18.0.0, SVG Export Plug-In . SVG Version: 6.00 Build 0)  -->
<!DOCTYPE svg PUBLIC "-//W3C//DTD SVG 1.1//EN" "http://www.w3.org/Graphics/SVG/1.1/DTD/svg11.dtd">
<svg version="1.1" id="Layer_1" xmlns="http://www.w3.org/2000/svg" xmlns:xlink="http://www.w3.org/1999/xlink" x="0px" y="0px"
	 viewBox="0 0 400 596" enable-background="new 0 0 400 596" xml:space="preserve">
<path fill="#7D35BF" d="M264,596c-8,0-18-4-22-10L16,324c-8-10-10-22-4-34c6-10,16-16,26-16h4c4,0,18,2,36,2c38,0,106-6,144-38
	c14-12,22-28,26-48H30c-16-2-30-14-30-32c0-16,14-30,30-30h212c-12-42-42-64-70-70H30C14,60,0,46,0,30S14,0,30,0h340
	c16,0,30,14,30,30s-14,30-30,30h-94c14,20,24,44,30,70h66c14-2,28,12,28,28s-14,30-30,30h-62c-4,38-20,70-48,94
	c-42,38-104,50-156,54l182,212c10,12,10,32-4,42C278,594,272,596,264,596z"/>
</svg>
