<?xml version="1.0" encoding="utf-8"?>
<!-- Generator: Adobe Illustrator 18.0.0, SVG Export Plug-In . SVG Version: 6.00 Build 0)  -->
<!DOCTYPE svg PUBLIC "-//W3C//DTD SVG 1.1//EN" "http://www.w3.org/Graphics/SVG/1.1/DTD/svg11.dtd">
<svg version="1.1" id="Layer_1" xmlns="http://www.w3.org/2000/svg" xmlns:xlink="http://www.w3.org/1999/xlink" x="0px" y="0px"
	 viewBox="0 0 400 400" enable-background="new 0 0 400 400" xml:space="preserve">
<g>
	<path fill="#7D35BF" d="M55,145c-30,0-55,24-55,55s25,55,55,55s55-25,55-55S86,145,55,145z M55,228c-15,0-28-12-28-28
		c0-15,12-28,28-28s28,12,28,28C83,215,71,228,55,228z"/>
	<path fill="#7D35BF" d="M345,145c-31,0-55,25-55,55c0,31,25,55,55,55s55-24,55-55S375,145,345,145z M345,228c-15,0-28-12-28-28
		c0-15,12-28,28-28s28,12,28,28C372,215,360,228,345,228z"/>
	<path fill="#7D35BF" d="M121,149l48-48c9,6,19,10,31,10c11,0,22-4,31-10l48,48l21-21l-50-50c3-7,5-15,5-23c0-30-24-55-55-55
		s-55,25-55,55c0,8,2,16,5,23l-50,50L121,149z M200,28c15,0,28,12,28,28c0,15-12,28-28,28s-28-12-28-28S185,28,200,28z"/>
	<path fill="#7D35BF" d="M279,251l-48,48c-9-6-19-10-31-10c-11,0-22,4-31,10l-48-48l-21,21l50,50c-3,7-5,15-5,23c0,31,25,55,55,55
		c31,0,55-25,55-55c0-8-2-16-5-23l50-50L279,251z M200,372c-15,0-28-12-28-28c0-15,12-28,28-28s28,12,28,28C228,360,215,372,200,372
		z"/>
</g>
</svg>
