<?xml version="1.0" encoding="utf-8"?>
<!-- Generator: Adobe Illustrator 18.0.0, SVG Export Plug-In . SVG Version: 6.00 Build 0)  -->
<!DOCTYPE svg PUBLIC "-//W3C//DTD SVG 1.1//EN" "http://www.w3.org/Graphics/SVG/1.1/DTD/svg11.dtd">
<svg version="1.1" id="Layer_1" xmlns="http://www.w3.org/2000/svg" xmlns:xlink="http://www.w3.org/1999/xlink" x="0px" y="0px"
	 viewBox="0 0 30 30" enable-background="new 0 0 30 30" xml:space="preserve">
<g>
	<path fill="#7D35BF" d="M30,3.9h-5.1C24.3,1.6,22.3,0,19.8,0c-2.4,0-4.5,1.6-5.1,3.9H0v2.9h14.7c0.6,2.2,2.7,3.9,5.1,3.9
		c2.4,0,4.5-1.6,5.1-3.9H30V3.9z M19.8,7.6c-1.3,0-2.3-1-2.3-2.3s1-2.3,2.3-2.3c1.3,0,2.3,1,2.3,2.3S21.1,7.6,19.8,7.6z"/>
	<path fill="#7D35BF" d="M30,13.5H14.6C14,11.3,12,9.7,9.5,9.7s-4.5,1.6-5.1,3.9H0v2.9h4.5c0.6,2.2,2.7,3.9,5.1,3.9s4.5-1.6,5.1-3.9
		H30V13.5z M9.5,17.3c-1.3,0-2.3-1-2.3-2.3s1-2.3,2.3-2.3c1.3,0,2.3,1,2.3,2.3S10.8,17.3,9.5,17.3z"/>
	<path fill="#7D35BF" d="M30,23.2h-5.1c-0.6-2.2-2.7-3.9-5.1-3.9c-2.4,0-4.5,1.6-5.1,3.9H0v2.9h14.7c0.6,2.2,2.7,3.9,5.1,3.9
		c2.4,0,4.5-1.6,5.1-3.9H30V23.2z M19.8,27c-1.3,0-2.3-1-2.3-2.3c0-1.3,1-2.3,2.3-2.3c1.3,0,2.3,1,2.3,2.3
		C22.1,25.9,21.1,27,19.8,27z"/>
</g>
</svg>
