<?xml version="1.0" encoding="utf-8"?>
<!-- Generator: Adobe Illustrator 18.0.0, SVG Export Plug-In . SVG Version: 6.00 Build 0)  -->
<!DOCTYPE svg PUBLIC "-//W3C//DTD SVG 1.1//EN" "http://www.w3.org/Graphics/SVG/1.1/DTD/svg11.dtd">
<svg version="1.1" id="Layer_1" xmlns="http://www.w3.org/2000/svg" xmlns:xlink="http://www.w3.org/1999/xlink" x="0px" y="0px"
	 viewBox="0 0 400 287.5" enable-background="new 0 0 400 287.5" xml:space="preserve">
<path fill="#7D35BF" d="M254.5,222.7c0,6.2-5.3,10.6-10.6,10.6h-53.2c-6.2,0-10.6-5.3-10.6-10.6s5.3-10.6,10.6-10.6h53.2
	C250,212.1,254.5,216.5,254.5,222.7z M162.2,210.3c0,42.6-34.6,77.2-77.2,77.2S9.5,252.9,9.5,210.3s34.6-77.2,77.2-77.2
	S162.2,168.6,162.2,210.3z M140.9,210.3c0-31.1-24.8-55.9-55.9-55.9s-55,25.7-55,55.9s24.8,55.9,55.9,55.9S140.9,241.4,140.9,210.3z
	 M400,223.6c0,35.5-28.4,63.9-63.9,63.9s-63.9-28.4-63.9-63.9s28.4-63.9,63.9-63.9S400,189,400,223.6z M378.7,223.6
	c0-23.1-19.5-42.6-42.6-42.6c-23.1,0-42.6,19.5-42.6,42.6s19.5,42.6,42.6,42.6C360.1,266.2,378.7,246.7,378.7,223.6z M85.9,94.1
	c-12.4,0-23.1,1.8-34.6,5.3l28.4-78.1H171l37.3,99.4c1.8,4.4,5.3,7.1,9.8,7.1h114.5l24,24c2.7,2.7,5.3,3.5,8,3.5s5.3-0.9,8-3.5
	c4.4-4.4,4.4-10.6,0-15.1L345.9,110c-1.8-1.8-5.3-3.5-8-3.5h-16V50.6c0-6.2-5.3-10.6-10.6-10.6c-6.2,0-10.6,5.3-10.6,10.6v55.9
	h-74.5L187.9,7.1C187,2.7,182.6,0,178.1,0H71.7c-4.4,0-8.9,2.7-9.8,7.1L24.6,111.8c-8,4.4-15.1,9.8-21.3,16
	c-4.4,4.4-4.4,10.6,0,15.1c4.4,4.4,10.6,4.4,15.1,0c5.3-5.3,11.5-9.8,17.7-14.2c1.8-0.9,3.5-1.8,4.4-2.7c14.2-8,29.3-11.5,46.1-11.5
	c25.7,0,49.7,9.8,67.4,28.4c2.7,2.7,5.3,3.5,8,3.5c2.7,0,5.3-0.9,8-3.5c4.4-4.4,4.4-10.6,0-15.1C146.2,106.5,116.9,94.1,85.9,94.1z
	 M85.9,197c-3.5,0-7.1,1.8-9.8,4.4c-2.7,2.7-4.4,6.2-4.4,9.8s1.8,7.1,4.4,9.8c2.7,2.7,6.2,4.4,9.8,4.4s7.1-1.8,9.8-4.4
	s4.4-6.2,4.4-9.8s-1.8-7.1-4.4-9.8C93,198.8,89.4,197,85.9,197z M336.1,207.7c-3.5,0-7.1,1.8-9.8,4.4c-2.7,2.7-4.4,6.2-4.4,9.8
	s1.8,7.1,4.4,9.8c2.7,2.7,6.2,4.4,9.8,4.4s7.1-1.8,9.8-4.4s4.4-6.2,4.4-9.8s-1.8-7.1-4.4-9.8C343.2,209.4,339.7,207.7,336.1,207.7z"
	/>
</svg>
