<?xml version="1.0" encoding="utf-8"?>
<!-- Generator: Adobe Illustrator 18.0.0, SVG Export Plug-In . SVG Version: 6.00 Build 0)  -->
<!DOCTYPE svg PUBLIC "-//W3C//DTD SVG 1.1//EN" "http://www.w3.org/Graphics/SVG/1.1/DTD/svg11.dtd">
<svg version="1.1" id="Layer_1" xmlns="http://www.w3.org/2000/svg" xmlns:xlink="http://www.w3.org/1999/xlink" x="0px" y="0px"
	 viewBox="0 0 290 263.9" enable-background="new 0 0 290 263.9" xml:space="preserve">
<g>
	<path fill="#7D35BF" d="M49.3,126.2c-5.8,0-10.9-5.1-10.9-10.9c0-26.8,21.8-48.6,48.6-48.6c5.8,0,10.9,5.1,10.9,10.9
		S92.8,88.5,87,88.5c-14.5,0-26.8,12.3-26.8,26.8C60.2,121.1,55.1,126.2,49.3,126.2z"/>
	<path fill="#7D35BF" d="M243.6,0c-26.1,0-46.4,21-46.4,46.4s21,46.4,46.4,46.4c26.1,0,46.4-21,46.4-46.4S269,0,243.6,0z
		 M272.6,52.9h-21.7v23.2h-15.2V52.9h-21.8v-13h21.8V17.4h15.2v23.2h21.7V52.9z"/>
	<path fill="#7D35BF" d="M243.6,105.8c-1.5,0-2.2,0-3.6,0c-0.7,13.8-5.8,26.8-14.5,35.5l-91.3,99.3c-1.5,2.2-4.4,2.2-5.8,0
		l-90.6-98.6c-10.1-10.1-15.9-23.9-15.9-37.7C21.8,74.7,46.4,50,76.1,50c18.1,0,34.8,8.7,45,24.7c2.2,2.9,5.1,5.1,9.4,5.1
		c3.6,0,7.3-2.2,8.7-5.1c10.1-15.2,26.1-23.9,44.2-24.7c0-1.4,0-2.2,0-3.6c0-6.5,0.7-13,2.9-18.8c-0.7,0-0.7,0-1.5,0
		c-20.3,0-40.6,8-54.4,23.2C116,36.3,96.4,27.6,76.1,27.6C34.1,28.3,0,62.3,0,104.4c0,20.3,8,39.2,21.8,52.9l89.9,97.9
		c5.1,5.8,11.6,8.7,18.9,8.7s14.5-2.9,18.9-8.7l89.9-97.9C253,142.8,261,124,261,104.4v-0.7C255.9,105.1,249.4,105.8,243.6,105.8z"
		/>
</g>
</svg>
