<?xml version="1.0" encoding="utf-8"?>
<!-- Generator: Adobe Illustrator 18.0.0, SVG Export Plug-In . SVG Version: 6.00 Build 0)  -->
<!DOCTYPE svg PUBLIC "-//W3C//DTD SVG 1.1//EN" "http://www.w3.org/Graphics/SVG/1.1/DTD/svg11.dtd">
<svg version="1.1" id="Layer_1" xmlns="http://www.w3.org/2000/svg" xmlns:xlink="http://www.w3.org/1999/xlink" x="0px" y="0px"
	 viewBox="0 0 260 265.3" enable-background="new 0 0 260 265.3" xml:space="preserve">
<g>
	<path fill="#7D35BF" d="M245.5,174.1c2.3-9.1,3-18.2,3-27.4c0-44.8-24.3-83.6-60.8-104.1c-0.8,7.6-2.3,14.4-6.1,20.5
		C209,80.6,228,111,228,145.9c0,6.8-0.8,13.7-2.3,19.8c-1.5,0-3,0-3.8,0c-21.3,0-38,17.5-38,38s17.5,38,38,38s38-17.5,38-38
		C260.7,191.5,254.6,180.9,245.5,174.1z M221.9,221.9c-9.9,0-17.5-7.6-17.5-17.5s7.6-17.5,17.5-17.5s17.5,7.6,17.5,17.5
		S231.8,221.9,221.9,221.9z"/>
	<path fill="#7D35BF" d="M31.9,145.2c0-41.8,26.6-77.5,63.8-91.2c6.1,12.9,19,22,34.2,22c21.3,0,38-17.5,38-38S150.5,0,130,0
		c-19.8,0-36.5,15.2-38,34.2c-47.1,15.2-81.3,60-81.3,111.7c0,1.5,0,3,0,5.3C17.5,148.2,24.3,145.9,31.9,145.2z M130,19.8
		c9.9,0,17.5,7.6,17.5,17.5s-7.6,17.5-17.5,17.5s-17.5-7.6-17.5-17.5S120.1,19.8,130,19.8z"/>
	<path fill="#7D35BF" d="M171.8,234.9c-12.9,6.1-27.4,9.9-41.8,9.9c-22.8,0-43.3-7.6-60-20.5c3.8-6.1,6.1-12.9,6.1-20.5
		c0-21.3-17.5-38-38-38s-38,17.5-38,38s17.5,38,38,38c6.1,0,12.2-1.5,16.7-3.8c20.5,16.7,46.4,27.4,75.2,27.4
		c20.5,0,39.5-5.3,57-14.4c-2.3-1.5-4.6-3-6.1-5.3C177.1,242.5,174.8,238.7,171.8,234.9z M20.5,203.7c0-9.9,7.6-17.5,17.5-17.5
		s17.5,7.6,17.5,17.5c0,9.9-7.6,17.5-17.5,17.5S20.5,213.6,20.5,203.7z"/>
</g>
</svg>
