<?xml version="1.0" encoding="utf-8"?>
<!-- Generator: Adobe Illustrator 18.0.0, SVG Export Plug-In . SVG Version: 6.00 Build 0)  -->
<!DOCTYPE svg PUBLIC "-//W3C//DTD SVG 1.1//EN" "http://www.w3.org/Graphics/SVG/1.1/DTD/svg11.dtd">
<svg version="1.1" id="Layer_1" xmlns="http://www.w3.org/2000/svg" xmlns:xlink="http://www.w3.org/1999/xlink" x="0px" y="0px"
	 viewBox="0 0 30 30" enable-background="new 0 0 30 30" xml:space="preserve">
<g>
	<path fill="#7D35BF" d="M11.1,11.1c2.9-2.9,7-3.8,10.7-2.9c-0.5-1.8-1.4-3.5-2.9-5c-4.3-4.3-11.3-4.3-15.7,0
		c-4.3,4.3-4.3,11.3,0,15.7c1.4,1.4,3.2,2.4,5,2.9C7.2,18.1,8.2,14,11.1,11.1z"/>
	<g>
		<defs>
			<path id="SVGID_1_" d="M18.9,18.9c2.9-2.9,3.8-7,2.9-10.7c-3.7-1-7.8,0-10.7,2.9c-2.9,2.9-3.8,7-2.9,10.7
				C11.9,22.8,16,21.8,18.9,18.9z"/>
		</defs>
		<clipPath id="SVGID_2_">
			<use xlink:href="#SVGID_1_"  overflow="visible"/>
		</clipPath>
		<g clip-path="url(#SVGID_2_)">
			<g>
				
					<rect x="12.8" y="9.1" transform="matrix(0.7071 0.7071 -0.7071 0.7071 12.8911 -10.9853)" fill="#7D35BF" width="13.7" height="2"/>
				
					<rect x="9.6" y="12.3" transform="matrix(0.7071 0.7071 -0.7071 0.7071 14.2221 -7.7719)" fill="#7D35BF" width="13.7" height="2"/>
				
					<rect x="6.4" y="15.5" transform="matrix(0.7071 0.7071 -0.7071 0.7071 15.553 -4.5588)" fill="#7D35BF" width="13.7" height="2"/>
				
					<rect x="3.2" y="18.7" transform="matrix(0.7071 0.7071 -0.7071 0.7071 16.8841 -1.3454)" fill="#7D35BF" width="13.7" height="2"/>
			</g>
		</g>
	</g>
	<path fill="#35B6F7" d="M21.8,8.2"/>
	<path fill="#7D35BF" d="M8.2,21.8c0.5,1.8,1.4,3.5,2.9,5c2.2,2.2,5,3.2,7.8,3.2c2.8,0,5.7-1.1,7.8-3.2c4.3-4.3,4.3-11.3,0-15.7
		c-1.4-1.4-3.2-2.4-5-2.9l0.4,2.7c1.1,0.4,2,1.1,2.8,1.9c3.4,3.4,3.4,8.8,0,12.2c-1.6,1.6-3.8,2.5-6.1,2.5c-2.3,0-4.5-0.9-6.1-2.5
		c-0.8-0.8-1.4-1.8-1.9-2.8L8.2,21.8z"/>
</g>
</svg>
