<?xml version="1.0" encoding="utf-8"?>
<!-- Generator: Adobe Illustrator 18.0.0, SVG Export Plug-In . SVG Version: 6.00 Build 0)  -->
<!DOCTYPE svg PUBLIC "-//W3C//DTD SVG 1.1//EN" "http://www.w3.org/Graphics/SVG/1.1/DTD/svg11.dtd">
<svg version="1.1" id="Layer_1" xmlns="http://www.w3.org/2000/svg" xmlns:xlink="http://www.w3.org/1999/xlink" x="0px" y="0px"
	 viewBox="0 0 26 26" enable-background="new 0 0 26 26" xml:space="preserve">
<g>
	<g>
		<path fill="#E9F0F5" d="M8.4,11.4v3.2c0,0,3.1,0,4.3,0c-0.7,2.1-1.7,3.2-4.3,3.2c-2.6,0-4.7-2.1-4.7-4.8c0-2.6,2-4.8,4.7-4.8
			c1.4,0,2.3,0.5,3.1,1.2c0.7-0.7,0.6-0.8,2.3-2.3C12.4,5.8,10.5,5,8.4,5c-4.4,0-8,3.6-8,8c0,4.4,3.6,8,8,8c6.6,0,8.2-5.8,7.7-9.6
			C14.5,11.4,8.4,11.4,8.4,11.4z M22.8,11.6V8.8h-2v2.8H18v2h2.9v2.9h2v-2.9h2.8v-2H22.8z"/>
	</g>
</g>
</svg>
