<?xml version="1.0" encoding="utf-8"?>
<!-- Generator: Adobe Illustrator 18.0.0, SVG Export Plug-In . SVG Version: 6.00 Build 0)  -->
<!DOCTYPE svg PUBLIC "-//W3C//DTD SVG 1.1//EN" "http://www.w3.org/Graphics/SVG/1.1/DTD/svg11.dtd">
<svg version="1.1" id="Layer_1" xmlns="http://www.w3.org/2000/svg" xmlns:xlink="http://www.w3.org/1999/xlink" x="0px" y="0px"
	 viewBox="0 0 18 18" enable-background="new 0 0 18 18" xml:space="preserve">
<g>
	<g>
		<path fill="#E9F0F5" d="M17.4,10.8V17h-3.6v-5.8c0-1.5-0.5-2.4-1.8-2.4c-1,0-1.6,0.7-1.8,1.3C10,10.3,10,10.6,10,11v6H6.4
			c0,0,0-9.8,0-10.8H10v1.5c0,0,0,0,0,0h0v0C10.5,7,11.3,6,13.2,6C15.6,6,17.4,7.5,17.4,10.8L17.4,10.8z M2.7,1c-1.2,0-2,0.8-2,1.9
			c0,1,0.8,1.9,2,1.9h0c1.3,0,2-0.8,2-1.9C4.6,1.8,3.9,1,2.7,1L2.7,1z M0.8,17h3.6V6.2H0.8V17z M0.8,17"/>
	</g>
</g>
</svg>
