<?xml version="1.0" encoding="utf-8"?>
<!-- Generator: Adobe Illustrator 18.0.0, SVG Export Plug-In . SVG Version: 6.00 Build 0)  -->
<!DOCTYPE svg PUBLIC "-//W3C//DTD SVG 1.1//EN" "http://www.w3.org/Graphics/SVG/1.1/DTD/svg11.dtd">
<svg version="1.1" id="Layer_1" xmlns="http://www.w3.org/2000/svg" xmlns:xlink="http://www.w3.org/1999/xlink" x="0px" y="0px"
	 viewBox="0 0 25 25" enable-background="new 0 0 25 25" xml:space="preserve">
<path fill="#E9F0F5" d="M21.5,11.6c1.3-0.1,2.2-0.7,2.5-1.5c-0.5,0.3-1.9,0.6-2.7,0.3c0-0.2-0.1-0.4-0.1-0.5
	c-0.6-2.3-2.7-4.1-4.9-3.9c0.2-0.1,0.4-0.1,0.5-0.2C17,5.7,18.4,5.5,18.2,5c-0.2-0.4-1.9,0.3-2.3,0.4c0.4-0.2,1.1-0.4,1.2-0.9
	c-0.7,0.1-1.3,0.4-1.8,0.9c0.2-0.2,0.3-0.4,0.3-0.7c-1.8,1.1-2.8,3.4-3.6,5.6c-0.7-0.6-1.2-1.1-1.8-1.4c-1.5-0.8-3.2-1.6-6-2.6
	c-0.1,0.9,0.4,2.1,2,2.9C6,9.1,5.4,9.2,4.9,9.3c0.2,1,0.8,1.9,2.6,2.3c-0.8,0.1-1.2,0.2-1.6,0.6c0.4,0.7,1.3,1.6,2.9,1.4
	c-1.8,0.8-0.7,2.2,0.7,2C7,18.2,3.1,18,0.9,15.9c5.8,8,18.6,4.7,20.5-3c1.4,0,2.3-0.5,2.8-1C23.3,12,22.1,11.9,21.5,11.6L21.5,11.6z
	 M21.5,11.6"/>
</svg>
