<?xml version="1.0" encoding="utf-8"?>
<!-- Generator: Adobe Illustrator 18.0.0, SVG Export Plug-In . SVG Version: 6.00 Build 0)  -->
<!DOCTYPE svg PUBLIC "-//W3C//DTD SVG 1.1//EN" "http://www.w3.org/Graphics/SVG/1.1/DTD/svg11.dtd">
<svg version="1.1" id="Layer_1" xmlns="http://www.w3.org/2000/svg" xmlns:xlink="http://www.w3.org/1999/xlink" x="0px" y="0px"
	 viewBox="0 0 29 29" enable-background="new 0 0 29 29" xml:space="preserve">
<g>
	<path fill="#575F70" d="M27,8.5H11c-1.1,0-2-0.9-2-2s0.9-2,2-2h16c1.1,0,2,0.9,2,2S28.1,8.5,27,8.5z"/>
	<path fill="#575F70" d="M27,16.5H2c-1.1,0-2-0.9-2-2s0.9-2,2-2h25c1.1,0,2,0.9,2,2S28.1,16.5,27,16.5z"/>
	<path fill="#575F70" d="M16.5,24.5H2c-1.1,0-2-0.9-2-2s0.9-2,2-2h14.5c1.1,0,2,0.9,2,2S17.6,24.5,16.5,24.5z"/>
</g>
</svg>
